<?xml version="1.0" encoding="UTF-8" standalone="no"?>
<!-- Created with Inkscape (http://www.inkscape.org/) -->

<svg
   xmlns:dc="http://purl.org/dc/elements/1.1/"
   xmlns:cc="http://creativecommons.org/ns#"
   xmlns:rdf="http://www.w3.org/1999/02/22-rdf-syntax-ns#"
   xmlns:svg="http://www.w3.org/2000/svg"
   xmlns="http://www.w3.org/2000/svg"
   xmlns:sodipodi="http://sodipodi.sourceforge.net/DTD/sodipodi-0.dtd"
   xmlns:inkscape="http://www.inkscape.org/namespaces/inkscape"
   width="1024"
   height="1024"
   id="svg2"
   version="1.1"
   inkscape:version="0.48.2 r9819"
   sodipodi:docname="logo.svg"
   inkscape:export-filename="/Users/ian/data/git/github/idmillington/dendry/design/logo_1024.png"
   inkscape:export-xdpi="123.86"
   inkscape:export-ydpi="123.86">
  <defs
     id="defs4" />
  <sodipodi:namedview
     id="base"
     pagecolor="#ffffff"
     bordercolor="#666666"
     borderopacity="1.0"
     inkscape:pageopacity="0.0"
     inkscape:pageshadow="2"
     inkscape:zoom="0.30175782"
     inkscape:cx="163.40758"
     inkscape:cy="578.1562"
     inkscape:document-units="px"
     inkscape:current-layer="layer2"
     showgrid="false"
     inkscape:snap-global="false"
     inkscape:window-width="1019"
     inkscape:window-height="880"
     inkscape:window-x="137"
     inkscape:window-y="0"
     inkscape:window-maximized="0"
     units="px"
     fit-margin-top="5"
     fit-margin-left="5"
     fit-margin-right="5"
     fit-margin-bottom="5" />
  <metadata
     id="metadata7">
    <rdf:RDF>
      <cc:Work
         rdf:about="">
        <dc:format>image/svg+xml</dc:format>
        <dc:type
           rdf:resource="http://purl.org/dc/dcmitype/StillImage" />
        <dc:title />
      </cc:Work>
    </rdf:RDF>
  </metadata>
  <g
     inkscape:groupmode="layer"
     id="layer2"
     inkscape:label="Layer"
     style="display:inline"
     transform="translate(6.2765944,178.21893)">
    <path
       style="color:#000000;fill:#333333;fill-opacity:1;fill-rule:nonzero;stroke:none;stroke-width:0.5;marker:none;visibility:visible;display:inline;overflow:visible;enable-background:accumulate"
       d="m 511.96875,25 c -2.34597,0 -4.66189,-0.0016 -7,0.03125 l -0.0625,0 c -6.48882,0.0927 -12.94994,0.34325 -19.375,0.6875 -0.28594,0.0152 -0.55794,0.0466 -0.84375,0.0625 -0.64285,0.0272 -1.29967,0.0247 -1.9375,0.0625 -1.8285,0.10831 -3.64572,0.27776 -5.46875,0.40625 -1.74241,0.12274 -3.48144,0.2339 -5.21875,0.375 -7.26024,0.58963 -14.48953,1.31412 -21.65625,2.21875 -0.14177,0.0178 -0.29576,0.0444 -0.4375,0.0625 -3.84831,0.48919 -7.68026,1.04654 -11.5,1.625 -1.31453,0.19908 -2.62644,0.41542 -3.9375,0.625 -0.66783,0.10803 -1.33321,0.20199 -2,0.3125 -0.24261,0.0399 -0.47625,0.08472 -0.71875,0.125 -1.7304,0.28927 -3.46518,0.60175 -5.1875,0.90625 -25.73934,4.55263 -50.7951,11.10526 -74.96875,19.53125 L 351.625,52 c -2.36495,0.82452 -4.71175,1.70145 -7.0625,2.5625 -1.03755,0.38004 -2.0919,0.73869 -3.125,1.125 l 0.0312,0.03125 c -1.3836,0.51736 -2.7474,1.00169 -4.125,1.53125 -0.99083,0.38081 -1.98033,0.83182 -2.96875,1.21875 -2.29715,0.90037 -4.595,1.75338 -6.875,2.6875 -0.10034,0.041 -0.21215,0.08393 -0.3125,0.125 -1.58833,0.65197 -3.17012,1.33175 -4.75,2 -1.75616,0.74143 -3.50637,1.48818 -5.25,2.25 -8.26725,3.61285 -16.41722,7.44894 -24.4375,11.5 l -0.0312,0 c -0.7986,0.4034 -1.60983,0.842162 -2.40625,1.25 -0.011,0.0059 -0.0199,-0.0059 -0.0312,0 -0.67574,0.346344 -1.3574,0.712999 -2.03125,1.0625 -1.07089,0.554883 -2.12128,1.093672 -3.1875,1.65625 -1.72654,0.911145 -3.47333,1.850051 -5.1875,2.78125 -1.05193,0.572473 -2.10903,1.138716 -3.15625,1.71875 -0.6161,0.34061 -1.23135,0.687549 -1.84375,1.03125 -1.75779,0.981929 -3.53697,1.997016 -5.28125,3 -0.24433,0.140699 -0.47469,0.265153 -0.71875,0.40625 -2.12247,1.225365 -4.24165,2.462432 -6.34375,3.71875 -0.34016,0.202755 -0.69217,0.421229 -1.03125,0.625 -0.14232,0.08549 -0.26404,0.164291 -0.40625,0.25 -0.58847,0.354463 -1.16315,0.705618 -1.75,1.0625 -1.61892,0.984389 -3.23719,1.9974 -4.84375,3 -0.01,0.0068 -0.0209,-0.0068 -0.0312,0 -0.7988,0.498447 -1.61073,0.997264 -2.40625,1.5 -0.84676,0.53545 -1.688,1.08467 -2.53125,1.625 -0.01,0.007 -0.0214,-0.007 -0.0312,0 -1.54434,0.98935 -3.09287,1.99401 -4.625,3 -1.72635,1.13446 -3.41413,2.3129 -5.125,3.46875 -0.01,0.007 -0.0527,-0.007 -0.0625,0 -0.63105,0.42602 -1.24599,0.85229 -1.875,1.28125 -0.80255,0.54731 -1.60422,1.1039 -2.40625,1.65625 -0.33851,0.23402 -0.69337,0.45264 -1.03125,0.6875 -1.18844,0.82263 -2.3545,1.63578 -3.53125,2.46875 -0.0162,0.011 -0.0463,0.0516 -0.0625,0.0625 -0.2324,0.16467 -0.42415,0.33493 -0.65625,0.5 -0.72612,0.51607 -1.46463,1.01193 -2.1875,1.53125 -1.42301,1.02367 -2.86979,2.05518 -4.28125,3.09375 -0.24582,0.18081 -0.47325,0.38113 -0.71875,0.5625 -0.0572,0.0422 -0.1303,0.0827 -0.1875,0.125 -14.80488,10.94658 -28.95288,22.73236 -42.40625,35.25 l -0.0312,-0.0312 c -1.15984,1.07917 -2.29535,2.1849 -3.4375,3.28125 -0.29297,0.27796 -0.5827,0.53382 -0.875,0.8125 -0.17402,0.16802 -0.35749,0.36297 -0.53125,0.53125 -1.2326,1.17868 -2.46731,2.3398 -3.6875,3.53125 -0.37428,0.36742 -0.71959,0.7573 -1.09375,1.125 -5.31133,5.21959 -10.5252,10.54313 -15.59375,16 -1.17335,1.26349 -2.34149,2.53383 -3.5,3.8125 -0.0541,0.0597 -0.10206,0.0966 -0.15625,0.15625 -0.11517,0.12713 -0.22852,0.27913 -0.34375,0.40625 -8.06896,8.90097 -15.78662,18.11192 -23.1875,27.59375 -0.86844,1.11262 -1.76605,2.19217 -2.625,3.3125 -1.05597,1.37753 -2.11534,2.76759 -3.15625,4.15625 -0.0617,0.0823 -0.12589,0.1677 -0.1875,0.25 -1.23626,1.65074 -2.44053,3.30188 -3.65625,4.96875 -0.57195,0.78471 -1.15141,1.58677 -1.71875,2.375 -0.57727,0.80141 -1.14624,1.63245 -1.71875,2.4375 -1.12839,1.58195 -2.26811,3.15326 -3.375,4.75 -0.007,0.01 0.007,0.0223 0,0.0312 -0.10938,0.1598 -0.23371,0.30948 -0.34375,0.46875 -0.99375,1.4374 -1.95888,2.86395 -2.9375,4.3125 -0.007,0.01 0.007,0.0527 0,0.0625 -0.77225,1.14382 -1.54899,2.25505 -2.3125,3.40625 -6.171466,9.30375 -12.028161,18.85624 -17.5625,28.59375 -0.816612,1.43681 -1.63513,2.86662 -2.4375,4.3125 -0.05642,0.10006 -0.09989,0.21245 -0.15625,0.3125 -0.649499,1.17238 -1.297418,2.32172 -1.9375,3.5 -0.20587,0.37622 -0.421411,0.71665 -0.625,1.09375 l 0.03125,0.0625 C 77.381491,291.78512 71.968995,302.77904 66.96875,314 l -0.03125,-0.0312 c -0.42298,0.94916 -0.836522,1.91865 -1.25,2.875 -0.06933,0.1583 -0.14959,0.31036 -0.21875,0.46875 -0.141969,0.32842 -0.295262,0.64104 -0.4375,0.96875 -8.127151,18.72477 -15.057674,38.0794 -20.8125,57.9375 l -0.0625,0.0312 -0.03125,0.0625 c -0.227918,0.78725 -0.463458,1.55487 -0.6875,2.34375 -0.525111,1.84961 -1.027975,3.70377 -1.53125,5.5625 -0.0226,0.0832 -0.04001,0.16664 -0.0625,0.25 -1.047643,3.87132 -2.014824,7.77857 -2.96875,11.6875 -0.328945,1.35241 -0.68246,2.70564 -1,4.0625 -0.03004,0.12795 -0.06376,0.24708 -0.09375,0.375 -0.250212,1.06921 -0.475595,2.14686 -0.71875,3.21875 -0.313567,1.36868 -0.638197,2.75021 -0.9375,4.125 -0.02784,0.12837 -0.06602,0.24657 -0.09375,0.375 -0.400126,1.84509 -0.777113,3.70968 -1.15625,5.5625 -0.174329,0.85546 -0.330133,1.70543 -0.5,2.5625 -0.180705,0.91173 -0.355661,1.83687 -0.53125,2.75 -0.11552,0.5985 -0.230426,1.18197 -0.34375,1.78125 -0.158426,0.8408 -0.31464,1.68915 -0.46875,2.53125 -0.219775,1.19683 -0.413993,2.39386 -0.625,3.59375 -0.09495,0.54152 -0.219312,1.08286 -0.3125,1.625 -0.177366,1.02918 -0.329105,2.06238 -0.5,3.09375 -0.22162,1.34022 -0.445358,2.6558 -0.65625,4 -0.105515,0.67162 -0.24099,1.35875 -0.34375,2.03125 -0.165225,1.08216 -0.310434,2.16501 -0.46875,3.25 -3.378685,23.15474 -5.125,46.84561 -5.125,70.9375 0,9.13013 0.285293,18.18135 0.78125,27.1875 l -0.0625,-0.0312 c 0.06495,1.1803 0.140068,2.37928 0.21875,3.5625 0.01154,0.18572 0.01948,0.37686 0.03125,0.5625 0.01319,0.19933 0.04967,0.39502 0.0625,0.59375 0.910814,14.09686 2.414851,28.00535 4.5,41.75 0.0261,0.172 0.03622,0.32804 0.0625,0.5 0.0297,0.17107 0.0674,0.36003 0.09375,0.53125 0.283637,1.84298 0.60201,3.66389 0.90625,5.5 0.07737,0.46928 0.139724,0.96874 0.21875,1.4375 0.224591,1.33213 0.453527,2.64067 0.6875,3.96875 0.06572,0.37076 0.120943,0.75453 0.1875,1.125 0.114695,0.64272 0.226601,1.26441 0.34375,1.90625 0.22024,1.19817 0.458504,2.39868 0.6875,3.59375 0.2169,1.13765 0.430345,2.30245 0.65625,3.4375 0.116276,0.58426 0.225361,1.16648 0.34375,1.75 0.05238,0.25808 0.103462,0.49206 0.15625,0.75 0.405468,1.97415 0.821168,3.93648 1.25,5.90625 0.08379,0.38487 0.165293,0.77167 0.25,1.15625 l 0.0625,0 c 3.945577,17.91839 8.859381,35.47579 14.71875,52.59375 0.582351,1.70133 1.180643,3.40099 1.78125,5.09375 0.353466,0.99917 0.702655,2.00392 1.0625,3 0.502637,1.38759 0.985143,2.77459 1.5,4.15625 0.326009,0.87487 0.669114,1.72126 1,2.59375 0.04813,0.12686 0.07677,0.24815 0.125,0.375 0.658997,1.73365 1.322628,3.46231 2,5.1875 0.04479,0.1138 0.0801,0.22998 0.125,0.34375 0.0067,0.017 0.05576,0.0141 0.0625,0.0312 0.677457,1.72075 1.335434,3.47644 2.03125,5.1875 0.0409,0.10033 0.08401,0.21214 0.125,0.3125 0.285148,0.69801 0.58671,1.39737 0.875,2.09375 0.422326,1.02662 0.847451,2.0329 1.28125,3.0625 0.04227,0.10019 0.08267,0.21243 0.125,0.3125 0.0073,0.0171 0.02398,0.014 0.03125,0.0312 0.722562,1.71095 1.44533,3.45668 2.1875,5.15625 4.480666,10.26008 9.315989,20.3105 14.46875,30.1875 0.351232,0.67325 0.708217,1.32861 1.0625,2 0.907531,1.73023 1.820842,3.47697 2.75,5.1875 0.0092,0.0169 0.02207,0.0455 0.03125,0.0625 0.171675,0.3125 0.36051,0.62491 0.53125,0.9375 0.768725,1.40752 1.530327,2.78847 2.3125,4.1875 0.455931,0.81548 0.883151,1.62468 1.34375,2.4375 0.266921,0.47107 0.544056,0.93618 0.8125,1.40625 6.3692,11.15344 13.17168,22.01498 20.375,32.59375 0.0982,0.14416 0.21419,0.29344 0.3125,0.4375 1.77386,2.59908 3.55245,5.18738 5.375,7.75 0.14196,0.19998 0.29526,0.394 0.4375,0.59375 0.99139,1.38952 1.99443,2.77763 3,4.15625 0.70855,0.97281 1.40875,1.93873 2.125,2.90625 0.38949,0.52573 0.7647,1.06963 1.15625,1.59375 11.59233,15.51723 24.11612,30.30187 37.4375,44.3125 l 0,0.0312 c 0.15364,0.16156 0.3149,0.3074 0.46875,0.46875 0.82368,0.8594 1.66654,1.74448 2.5,2.59375 0.52621,0.54387 1.03379,1.08359 1.5625,1.625 0.0988,0.10087 0.21376,0.18028 0.3125,0.28125 0.52213,0.53373 1.03794,1.06241 1.5625,1.59375 0.74434,0.75398 1.50079,1.50087 2.25,2.25 1.08879,1.08963 2.18263,2.17018 3.28125,3.25 0.28809,0.28265 0.55495,0.59304 0.84375,0.875 0.20152,0.19712 0.42315,0.39696 0.625,0.59375 0.35439,0.34485 0.70706,0.68747 1.0625,1.03125 0.14494,0.14049 0.29238,0.29732 0.4375,0.4375 0.69722,0.6726 1.39255,1.33155 2.09375,2 1.17568,1.11957 2.34442,2.23169 3.53125,3.34375 1.66494,1.55603 3.3133,3.09219 5,4.625 0.7544,0.68722 1.52242,1.34885 2.28125,2.03125 0.18755,0.16865 0.3749,0.36266 0.5625,0.53125 1.04319,0.93336 2.10499,1.85676 3.15625,2.78125 0.91442,0.81118 1.82634,1.63713 2.75,2.4375 0.008,0.007 0.0231,-0.007 0.0312,0 0.30517,0.26437 0.60042,0.54893 0.90625,0.8125 l 0.0937,0 c 2.45975,2.11922 4.87279,4.21073 7.375,6.28125 0.0701,0.058 0.14849,0.0982 0.21875,0.15625 1.32207,1.09273 2.66623,2.17102 4,3.25 18.40669,14.89068 37.89675,28.50559 58.375,40.625 0.0167,0.01 0.0456,0.0213 0.0625,0.0312 0.49436,0.29248 1.00454,0.58421 1.5,0.875 1.12587,0.66047 2.24409,1.31785 3.375,1.96875 1.64403,0.94719 3.31269,1.88403 4.96875,2.8125 9.32598,5.22858 18.83892,10.13026 28.53125,14.75 l 0,0.0625 c 1.15116,0.5486 2.31261,1.08518 3.46875,1.625 0.011,0.006 0.0195,-0.006 0.0312,0 1.77471,0.82853 3.55768,1.66124 5.34375,2.46875 0.0124,0.006 0.0508,-0.006 0.0625,0 1.78575,0.80718 3.54633,1.61991 5.34375,2.40625 0.0124,0.006 0.0192,-0.006 0.0312,0 0.74251,0.32481 1.47436,0.64751 2.21875,0.96875 2.88295,1.2438 5.77605,2.46685 8.6875,3.65625 1.31837,0.53867 2.67589,1.03509 4,1.5625 0.20145,0.0803 0.39216,0.17003 0.59375,0.25 0.31466,0.1248 0.62251,0.28207 0.9375,0.40625 1.74239,0.68843 3.49849,1.32798 5.25,2 0.58808,0.224 1.19208,0.46572 1.78125,0.6875 1.48367,0.5623 2.94628,1.11151 4.4375,1.65625 l 0,-0.0312 c 7.43153,2.71425 14.93544,5.26748 22.53125,7.625 l -0.0312,0.0312 c 1.83351,0.56931 3.68853,1.07686 5.53125,1.625 1.47417,0.43447 2.92618,0.92387 4.40625,1.34375 2.3678,0.67981 4.74257,1.32403 7.125,1.96875 0.96784,0.26186 1.93603,0.49396 2.90625,0.75 28.84565,7.61238 58.75794,12.65234 89.4375,14.84375 0.45841,0.0327 0.91624,0.0622 1.375,0.0937 0.1993,0.0137 0.39441,0.0177 0.59375,0.0312 2.72129,0.18339 5.42289,0.33022 8.15625,0.46875 0.76938,0.0396 1.54218,0.12028 2.3125,0.15625 2.02039,0.0929 4.06703,0.11927 6.09375,0.1875 0.57176,0.0194 1.11519,0.0765 1.6875,0.0937 l 0,-0.0312 c 4.97245,0.15013 9.99114,0.25 15,0.25 8.88372,0 17.70225,-0.24912 26.46875,-0.71875 l 0,0.0312 c 1.2303,-0.0659 2.45797,-0.17189 3.6875,-0.25 0.37098,-0.0237 0.75414,-0.007 1.125,-0.0312 0.82728,-0.0524 1.64257,-0.13099 2.46875,-0.1875 2.42982,-0.16634 4.86135,-0.36067 7.28125,-0.5625 21.80072,-1.81837 43.20433,-5.06115 64.09375,-9.65625 0.61215,-0.1347 1.1995,-0.27721 1.8125,-0.40625 0.19923,-0.0447 0.42585,-0.0801 0.625,-0.125 18.65286,-4.20394 36.88242,-9.50467 54.65625,-15.78125 2.14901,-0.7589 4.30246,-1.52442 6.4375,-2.3125 1.45905,-0.53582 2.89274,-1.07488 4.34375,-1.625 0.66989,-0.25466 1.36276,-0.49248 2.03125,-0.75 18.92112,-7.28925 37.27286,-15.75151 54.96875,-25.25 l 0.0312,0 c 0.70205,-0.377 1.42298,-0.77577 2.125,-1.15625 0.79721,-0.43205 1.58282,-0.84507 2.375,-1.28125 0.91877,-0.5066 1.83489,-1.04987 2.75,-1.5625 1.70158,-0.95116 3.40484,-1.93534 5.09375,-2.90625 1.0682,-0.61423 2.1204,-1.22596 3.1875,-1.84375 0.41595,-0.24337 0.83483,-0.47419 1.25,-0.71875 0.21517,-0.12673 0.44154,-0.24776 0.65625,-0.375 1.24128,-0.73381 2.48457,-1.47426 3.71875,-2.21875 0.44452,-0.26865 0.86929,-0.54292 1.3125,-0.8125 1.85976,-1.12997 3.7192,-2.28344 5.5625,-3.4375 9.04678,-5.66401 17.8963,-11.61471 26.53125,-17.84375 0.31474,-0.22704 0.62333,-0.45972 0.9375,-0.6875 0.37178,-0.27009 0.75444,-0.54122 1.125,-0.8125 1.95443,-1.4254 3.88027,-2.85885 5.8125,-4.3125 19.44115,-14.62581 37.72498,-30.68432 54.75,-48 0.39551,-0.40225 0.82464,-0.78405 1.21875,-1.1875 1.1913,-1.22005 2.35271,-2.45502 3.53125,-3.6875 0.16775,-0.17517 0.36376,-0.35586 0.53125,-0.53125 1.39274,-1.46081 2.78158,-2.92824 4.15625,-4.40625 1.28191,-1.37579 2.54641,-2.73391 3.8125,-4.125 0.25802,-0.28386 0.49267,-0.59052 0.75,-0.875 39.68356,-43.86869 71.49488,-94.99289 93.1875,-151.15625 0.75855,-1.96395 1.48502,-3.93008 2.21875,-5.90625 2.19253,-5.90513 4.28253,-11.86425 6.25,-17.875 0.0902,-0.27515 0.21377,-0.54154 0.3125,-0.8125 0.0838,-0.25733 0.16668,-0.52371 0.25,-0.78125 0.56217,-1.73783 1.08187,-3.47243 1.625,-5.21875 0.2034,-0.65406 0.39302,-1.31352 0.59375,-1.96875 0.38655,-1.25459 0.78013,-2.49119 1.15625,-3.75 0.004,-0.0138 -0.004,-0.0494 0,-0.0625 0.20422,-0.6865 0.39268,-1.34856 0.59375,-2.03125 0.1252,-0.42787 0.28223,-0.85291 0.40625,-1.28125 0.004,-0.0124 -0.004,-0.0488 0,-0.0625 4.81165,-16.6229 8.7761,-33.60251 11.8125,-50.90625 0.26593,-1.51528 0.49671,-3.06964 0.75,-4.59375 0.26524,-1.59615 0.53154,-3.18013 0.78125,-4.78125 0.0648,-0.41581 0.15503,-0.83405 0.21875,-1.25 0.14845,-0.97161 0.26356,-1.93278 0.40625,-2.90625 1.18501,-8.08475 2.18612,-16.19744 2.96875,-24.40625 0.0258,-0.2707 0.0684,-0.57292 0.0937,-0.84375 0.15866,-1.69412 0.26497,-3.36338 0.40625,-5.0625 0.16465,-1.98022 0.32787,-3.98187 0.46875,-5.96875 0.0856,-1.22479 0.20444,-2.42899 0.28125,-3.65625 0.0389,-0.61304 0.0259,-1.23009 0.0625,-1.84375 0.0269,-0.4572 0.0679,-0.91745 0.0937,-1.375 0.0566,-0.99632 0.10619,-2.0007 0.15625,-3 0.0339,-0.66788 0.0625,-1.33143 0.0937,-2 0.35607,-7.64093 0.5625,-15.33344 0.5625,-23.0625 0,-6.6206 -0.11337,-13.22485 -0.375,-19.78125 -0.008,-0.19977 -0.0543,-0.39404 -0.0625,-0.59375 -0.0662,-1.57143 -0.13293,-3.15107 -0.21875,-4.71875 -0.0638,-1.25955 -0.11411,-2.493 -0.1875,-3.75 -0.16843,-2.88502 -0.34404,-5.78493 -0.5625,-8.65625 -0.01,-0.12906 -0.0526,-0.24591 -0.0625,-0.375 -1.95593,-25.44366 -5.87803,-50.3325 -11.59375,-74.53125 -0.27369,-1.15851 -0.53137,-2.31303 -0.8125,-3.46875 -0.16715,-0.68507 -0.32993,-1.37857 -0.5,-2.0625 -0.45811,-1.84263 -0.92719,-3.66573 -1.40625,-5.5 -1.47421,-5.64466 -3.04906,-11.24963 -4.71875,-16.8125 -0.4598,-1.53158 -0.93482,-3.06842 -1.40625,-4.59375 -0.0653,-0.21136 -0.0902,-0.41379 -0.15625,-0.625 l -0.0625,0 c -0.46448,-1.48624 -0.89669,-2.98865 -1.375,-4.46875 -0.0654,-0.20239 -0.12172,-0.39175 -0.1875,-0.59375 -0.32792,-1.01015 -0.66567,-2.02401 -1,-3.03125 -0.29684,-0.88398 -0.60517,-1.77294 -0.90625,-2.65625 -0.16888,-0.49917 -0.32953,-1.00156 -0.5,-1.5 -0.28782,-0.84054 -0.58266,-1.69291 -0.875,-2.53125 -0.19017,-0.54537 -0.4014,-1.08009 -0.59375,-1.625 -0.87301,-2.47894 -1.74444,-4.94588 -2.65625,-7.40625 -0.4665,-1.25647 -0.93261,-2.49523 -1.40625,-3.75 -0.72735,-1.91348 -1.46805,-3.8169 -2.21875,-5.71875 -0.0163,-0.0415 -0.0208,-0.11238 -0.0312,-0.15625 -0.006,-0.0124 0.006,-0.019 0,-0.0312 -0.68643,-1.7349 -1.38393,-3.46787 -2.09375,-5.1875 -0.56185,-1.3753 -1.14475,-2.72477 -1.71875,-4.09375 -9.74359,-23.2375 -21.234,-45.53959 -34.3125,-66.78125 -0.52103,-0.84623 -1.07103,-1.68678 -1.59375,-2.53125 -0.74153,-1.19797 -1.46245,-2.40512 -2.21875,-3.59375 l -0.0312,0 c -5.0049,-7.86492 -10.25235,-15.60657 -15.6875,-23.15625 -1.63224,-2.26725 -3.26747,-4.51219 -4.9375,-6.75 -0.0922,-0.1237 -0.18898,-0.25137 -0.28125,-0.375 -1.29714,-1.73469 -2.6179,-3.47079 -3.9375,-5.1875 -0.1913,-0.2492 -0.40137,-0.47057 -0.59375,-0.71875 -1.48471,-1.92378 -2.95608,-3.84922 -4.46875,-5.75 -0.3218,-0.40437 -0.64569,-0.81543 -0.96875,-1.21875 -0.26536,-0.33159 -0.54626,-0.66912 -0.8125,-1 -1.35025,-1.67678 -2.69057,-3.34161 -4.0625,-5 -0.14174,-0.17131 -0.26427,-0.36012 -0.40625,-0.53125 l -0.0625,0 c -9.14804,-11.02688 -18.7415,-21.63774 -28.8125,-31.8125 -0.32619,-0.32952 -0.67289,-0.67144 -1,-1 -0.25629,-0.25743 -0.52416,-0.49364 -0.78125,-0.75 -1.10582,-1.10596 -2.19613,-2.21715 -3.3125,-3.3125 -0.27333,-0.26809 -0.53855,-0.54504 -0.8125,-0.8125 -1.20563,-1.17734 -2.43852,-2.33511 -3.65625,-3.5 -0.18931,-0.18104 -0.37289,-0.38176 -0.5625,-0.5625 -0.0439,-0.0419 -0.081,-0.0831 -0.125,-0.125 -0.1393,-0.13277 -0.26677,-0.24248 -0.40625,-0.375 -1.22493,-1.16398 -2.45434,-2.32103 -3.6875,-3.46875 -0.36737,-0.34201 -0.75656,-0.69037 -1.125,-1.03125 -1.06515,-0.98532 -2.11346,-1.99268 -3.1875,-2.96875 -0.4807,-0.43694 -0.98631,-0.84619 -1.46875,-1.28125 -0.21702,-0.19568 -0.43887,-0.39845 -0.65625,-0.59375 -10.10489,-9.07921 -20.59593,-17.74978 -31.4375,-25.96875 -2.39654,-1.81682 -4.78781,-3.60183 -7.21875,-5.375 -0.2398,-0.17492 -0.47861,-0.35677 -0.71875,-0.53125 -2.68765,-1.95294 -5.42749,-3.88233 -8.15625,-5.78125 C 778.60508,104.16979 767.08727,96.854709 755.21875,90 c -0.0275,-0.01595 -0.0662,-0.0467 -0.0937,-0.0625 -1.93201,-1.11533 -3.86386,-2.223052 -5.8125,-3.3125 -0.21253,-0.11875 -0.44351,-0.225234 -0.65625,-0.34375 -1.48845,-0.830825 -2.97054,-1.684103 -4.46875,-2.5 -0.011,-0.0055 -0.0515,0.0055 -0.0625,0 -0.41598,-0.225969 -0.83747,-0.458383 -1.25,-0.6875 -0.28534,-0.153908 -0.55807,-0.315392 -0.84375,-0.46875 -0.83728,-0.450756 -1.69102,-0.866542 -2.53125,-1.3125 -0.18543,-0.09813 -0.34457,-0.214683 -0.53125,-0.3125 -0.41178,-0.217282 -0.83753,-0.40887 -1.25,-0.625 -1.17026,-0.614748 -2.32406,-1.238593 -3.5,-1.84375 -0.15867,-0.08146 -0.34119,-0.168051 -0.5,-0.25 -0.34089,-0.174608 -0.65866,-0.35742 -1,-0.53125 -11.5803,-5.89739 -23.43922,-11.33744 -35.53125,-16.3125 -1.28311,-0.52792 -2.55516,-1.04525 -3.84375,-1.5625 -0.5707,-0.22907 -1.14699,-0.46052 -1.71875,-0.6875 -1.47599,-0.58594 -2.95446,-1.17811 -4.4375,-1.75 -0.71021,-0.27388 -1.44161,-0.54476 -2.15625,-0.8125 -1.26987,-0.4828 -2.50631,-0.93376 -3.78125,-1.40625 -10.34603,-3.83408 -20.86733,-7.30002 -31.53125,-10.4375 -0.14204,-0.0418 -0.26826,-0.11408 -0.40625,-0.15625 -2.71361,-0.7959 -5.42318,-1.56281 -8.15625,-2.3125 -2.46487,-0.67615 -4.92592,-1.36178 -7.40625,-2 -0.27072,-0.0697 -0.54162,-0.14956 -0.8125,-0.21875 -1.67363,-0.43027 -3.38196,-0.80611 -5.0625,-1.21875 -1.73433,-0.42583 -3.47711,-0.84358 -5.21875,-1.25 -0.2154,-0.0503 -0.40951,-0.13758 -0.625,-0.1875 -0.41174,-0.0951 -0.83788,-0.15599 -1.25,-0.25 -1.49779,-0.34286 -2.99687,-0.7033 -4.5,-1.03125 l -0.0312,0.0625 c -19.83551,-4.32438 -40.15456,-7.45557 -60.8125,-9.28125 -3.30039,-0.29168 -6.58727,-0.55574 -9.90625,-0.78125 -0.28554,-0.0194 -0.58933,-0.07475 -0.875,-0.09375 -0.45581,-0.0304 -0.88755,-0.06465 -1.34375,-0.09375 -3.14511,-0.19934 -6.30769,-0.36064 -9.46875,-0.5 -0.29864,-0.0138 -0.60746,-0.01845 -0.90625,-0.03125 -2.77745,-0.11737 -5.55446,-0.2106 -8.34375,-0.28125 -0.55417,-0.0141 -1.10162,-0.01915 -1.65625,-0.03125 -0.3273,-0.007 -0.67257,0.007 -1,0 C 518.63624,25.0591 515.34772,25 512.03125,25 z m 16.5625,25.84375 11.76913,31.480412 -7.17492,20.957158 L 525.5,137.6875 504.1875,111.03125 494.65625,80.96875 z M 467.3125,51.75 l -15.4375,11 -0.40625,-9.3125 c 5.25323,-0.65911 10.53683,-1.2074 15.84375,-1.6875 z m 80.61845,-0.827896 c 9.59172,0.93534 25.53445,3.374256 34.94405,4.890396 L 561.75,68.21875 z m -120.7122,6.202896 0.5625,22.78125 -18.1875,21.21875 -22.75,-29.1875 -6.5625,-3.71875 c 15.32336,-4.47323 30.99677,-8.22019 46.9375,-11.09375 z m 197.9375,7.53125 c 2.77696,0.72194 5.525,1.4464 8.28125,2.21875 l 3.09375,15.46875 -40.4375,22.84375 c 0,0 -14.93125,12.42943 -26.96875,23.8125 l 3.53125,-21.84375 z M 366.8125,72.375 l 14.15625,9.3125 19.6875,29.875 -38.78125,51.5625 -17.4375,-53.65625 -2.78125,-28.0625 c 8.27094,-3.242744 16.65953,-6.2625 25.15625,-9.03125 z m 297.65625,4.40625 c 2.94493,1.05717 5.86451,2.166 8.78125,3.28125 l -7.375,28.15625 -8.3125,-25.84375 1.125,-0.6875 z m 16.96875,6.5 c 15.92995,6.446368 31.45419,13.783213 46.4375,21.90625 l 3.46875,24.4375 -12.03125,-6.875 -17.59375,5.90625 -28.3125,28.28125 0.9375,-22.40625 -2.0625,-6.46875 z m -193.21875,3.40625 3.9375,14.65625 -16.1875,-3.75 z m 150.625,7.25 8.125,40.59375 -14.59375,72.78125 -20.71875,10.34375 11.8125,-46 -13.6875,-41.0625 -10.59375,-8.25 L 607.8125,113 z M 472.1875,101 l 22.40625,9.3125 1.78125,6.59375 26.4375,35.5 -1.03125,5.5625 -11.71875,76.28125 -23.1875,35.3125 -22.5625,-70.78125 6.40625,-96.5 z m -9.28125,8.375 -5.6875,54.46875 -1.96875,6.53125 -5.8125,-18.25 -6.78125,-8.6875 z m -181.125,0.6875 32.65625,24.46875 11,52.15625 -0.125,47.1875 -32.40625,-66.09375 -38.75,-40.625 c 8.99659,-6.01951 18.19461,-11.70822 27.625,-17.09375 z m 468.96875,7.375 c 0.84098,0.54394 9.31908,6.91948 10.15625,7.46875 L 756,128.71875 z m -36.5,14.71875 18.53125,7.40625 -27.15625,53.625 -33.9375,5.8125 1,-24.09375 15.34375,-20.8125 z m -125.5,1.34375 13.21875,8.84375 11.75,31.28125 -5.375,45.71875 -17.21875,8.59375 -16.5625,-38.65625 -9.1875,-9.1875 -0.46875,-20.96875 z m 189.53125,3.4375 c 20.27249,14.67329 39.31385,30.91034 56.90625,48.625 l -0.46875,7.625 -43,-3.90625 -37.1875,0 -9.8125,-3.9375 13.40625,-35.125 12.0625,5.84375 19.5625,25.40625 -11.71875,-27.375 L 761.25,145.125 z m -526.4375,7.78125 31.3125,36.75 11.6875,29.21875 -31.21875,-1.84375 -12.6875,8.4375 0.90625,-41.6875 z m -41.125,15.40625 -6.90625,13.84375 -4.625,-3.625 c 3.79118,-3.47114 7.62486,-6.87481 11.53125,-10.21875 z m 221.96875,0.125 4.96875,7.53125 21.53125,60.625 9.03125,69.53125 -3.1875,4.78125 -13.84375,32 -9.59375,-32 -38.03125,-55.65625 0.84375,-6.9375 21.53125,-21.53125 -5.875,-37.125 z m -247.15625,23.09375 19.15625,24.125 2.1875,40.46875 -37.4375,-33.8125 -4.03125,-9.46875 c 6.47817,-7.30816 13.19931,-14.43164 20.125,-21.3125 z m 380.53125,27.125 4.625,6.21875 4.28125,19.3125 -8.21875,4.125 z m 268.28125,9.34375 -5,21.28125 -17.90625,32.21875 -29.6875,26.03125 -3.71875,-2.5 -11.125,-3.46875 -2.59375,-20 -40.28125,-30.15625 14.84375,-16.78125 51.90625,-5.875 z m -555.125,0.75 24.46875,12.25 14.1875,35.40625 -9.28125,77.53125 -44.96875,-37.15625 -13.71875,-43.0625 0.75,-33.1875 z m 580.9375,0 7.25,1.125 c 8.75775,10.89394 17.06131,22.1669 24.8125,33.84375 l -13.6875,19.125 -30.125,-3.21875 11.75,-33.25 z m -170.46875,26 51.15625,32.71875 1.875,7.46875 -48.8125,-3.59375 -48.375,12.375 8.75,-37.90625 22.40625,-8.8125 z m -557.96875,0.90625 2.8125,0.46875 25.40625,25.4375 23.4375,37.1875 -50.46875,4.5625 -28.875,-22.40625 c 8.3725,-15.63752 17.62379,-30.76049 27.6875,-45.25 z M 636.3125,262.5 l -21.6875,52.65625 -11.5,-34 z m 262.15625,2.75 c 3.31145,5.27118 6.5559,10.58763 9.65625,16 l -4.96875,-3.9375 -10.1875,-1.125 z M 399.3125,281.84375 404.40625,291 l 25.4375,41.0625 4.46875,41.59375 -9.8125,22.6875 -23.21875,10.15625 -0.375,-0.375 -6.28125,-85.8125 z m 190.5,7.6875 6.4375,31.875 -8.21875,30.25 -21.25,19.65625 -33.28125,3.8125 17.75,-45 z M 98,304.46875 l 12.5625,15.75 -21.6875,9.9375 -2.09375,-1.5625 C 90.280977,320.4181 94.047745,312.39208 98,304.46875 z m 766.0625,4.125 39.09375,7.8125 31.84375,20.125 c 3.72197,9.1652 7.11391,18.48872 10.25,27.9375 l -16.625,-1.125 -56.09375,-18.6875 -0.65625,-0.875 -48.84375,-25.65625 9.75,-7.5625 z m -156.5625,0.4375 41.34375,2.21875 3.28125,13.1875 -77.78125,38.90625 -44.5,2.4375 19.03125,-20.03125 -3.625,-13.9375 9.25,-7.875 z m 97,24.375 20,7.375 10.21875,18.65625 -3.90625,33.25 13.6875,19.5625 -5.84375,-19.5625 7.8125,-35.21875 -4.3125,-4.8125 14.0625,4.8125 35.21875,37.1875 12.28125,41.5 -85.875,1.375 L 811.25,392.6875 781.28125,361.25 l 6.5,-7.65625 z m -652.375,20.1875 -5.875,15.625 19.5625,11.75 5.46875,-1.53125 8.125,-2.28125 21.625,-5.96875 33.21875,27.375 43.0625,46.96875 5.8125,70.375 -17.59375,23.5 -15.625,43 L 220.5625,613.6875 191.25,607.875 154.09375,601.96875 109.5,603.15625 89.53125,576.53125 52.6875,559.96875 c -1.83049,-16.6605 -2.78125,-33.5705 -2.78125,-50.71875 0,-42.24886 5.696772,-83.17369 16.375,-122.03125 L 68,384.875 99.3125,359.4375 z m 736.3125,13.1875 40.1875,8.34375 19.625,-1.34375 c 3.15445,10.23712 5.99324,20.62756 8.4375,31.15625 l -26.15625,30.8125 -12.59375,0.1875 -10.84375,-43.25 z m -112.375,4.40625 25.40625,25.40625 7,40.59375 -32.40625,-18.75 z m -12.375,10.71875 3.5,32.65625 -24.375,-8.1875 z m 197.03125,42.28125 c 1.93567,10.33841 3.51947,20.77374 4.75,31.34375 L 948.15625,445.5 z m -317.6875,35 50.875,0 37.125,9.78125 25.625,25.625 2.40625,2.40625 11.125,11.09375 35.21875,0 22.40625,10.25 10.84375,23 15.5625,32.15625 9.03125,36.5625 -0.28125,107.4375 6.6875,-11.71875 6.6875,-102.5 -9.28125,-41.71875 -12.75,-34.4375 44.96875,24 44.96875,66.5 6.21875,19.65625 -2.4375,7.875 0.0937,0.0625 c -20.86248,67.42856 -56.84117,128.18426 -103.96875,178.375 l -7.46875,-0.625 -44.96875,1.96875 -45.03125,13.71875 -27.375,-7.84375 -76.28125,-31.28125 -49.875,-27.78125 -25.03125,-19.125 -32.28125,-29.96875 -10.03125,-18 -2.375,-58.625 -4.4375,-32.9375 -28.5,-48.28125 21.46875,-66.46875 48.90625,-23.5 75.4375,-14.375 z m 297.3125,3.9375 27.09375,13.5 c 0.75485,10.76743 1.15625,21.66555 1.15625,32.625 0,4.98367 -0.12374,9.92962 -0.28125,14.875 l -6.4375,-2.34375 -30.09375,-6.5 L 928.625,478.75 925.1875,465 z m -27.6875,3.46875 4.1875,14.09375 4.9375,32.40625 -4.9375,-1.0625 -58.65625,-31.34375 -15.65625,-7.8125 50.875,-3.90625 z m 27.6875,76.71875 26.75,3.09375 c -0.9438,11.78195 -2.34014,23.45445 -4.15625,34.96875 l -3,-0.15625 z M 55.4375,583.25 l 13.59375,10.34375 6.8125,11.03125 0.875,8.84375 -15.40625,-3.9375 C 59.844342,601.80039 56.512954,591.11289 55.4375,583.25 z m 9.28125,42.09375 7.21875,2.0625 38.03125,6.625 -5.40625,14.09375 7.21875,6.375 L 91.5,662.625 77.0625,665.1875 C 72.364081,652.17001 68.24413,638.87742 64.71875,625.34375 z m 60.3125,10.28125 19.21875,0.90625 -21.375,13.0625 z M 174.5,645.71875 198.3125,658.09375 181.46875,690 l 6.9375,24.21875 -47.125,-4.40625 c 0.66008,-9.03324 2.06486,-25.32449 3.90625,-31.1875 1.08387,-3.45103 -2.67558,-8.88953 -7.40625,-14.0625 l 30,0 z m -49.21875,20.6875 9.53125,8.40625 c 0,0 -4.25985,16.28369 -6.8125,27.78125 l -13.0625,-8.6875 -28.3125,-4.5 c -1.465417,-3.43332 -2.897657,-6.86808 -4.28125,-10.34375 l 24.8125,-2.75 z m 99.0625,6.625 17.75,11.0625 -1.96875,13.6875 -39.09375,17.625 L 203,682.1875 l 9.75,-5.875 z M 99.0625,716.1875 l 15.875,7.0625 -8.3125,7.28125 c -2.60275,-4.72596 -5.12318,-9.51815 -7.5625,-14.34375 z m 227.15625,3.125 9.75,46.9375 -1.96875,19.59375 -43,29.3125 -0.4375,3.8125 c -0.80658,-13.20091 -1.53125,-25.91312 -1.53125,-29.21875 0,-7.82355 7.8125,-25.4375 7.8125,-25.4375 l -4.1875,-25.15625 z m 102.1875,15.21875 15.125,39.5625 15.65625,27.375 43.03125,35.21875 2.09375,16.9375 -2.09375,-1.28125 -42,3.0625 -38.1875,-48.09375 -18.875,-39.5625 z m -299.78125,8.28125 15.65625,0 -11.71875,25.40625 -1.8125,1.375 c -4.94301,-7.17245 -9.68089,-14.50939 -14.21875,-21.96875 z m 152.6875,2.3125 5.75,17.21875 -7.84375,23.5 9.21875,47.28125 -23.65625,14.1875 4.6875,-16.5 0,-35.21875 -25.40625,-15.65625 4.96875,-22.40625 24.34375,-10.84375 z m -105.71875,11.375 14.71875,1.96875 12.6875,33.25 -5.90625,39.09375 1.34375,16.65625 c -9.43331,-8.67279 -18.47609,-17.76108 -27.15625,-27.1875 l 4.3125,-12.96875 0,-17.5625 -8.8125,-20.46875 z m 294.875,2 29.78125,21.4375 45,21.53125 23.46875,52.84375 17.625,33.21875 -11.9375,26.53125 -3.71875,-14.78125 -17.625,-18.125 -25.4375,-28.40625 -1.875,-5.8125 -0.0937,-14.15625 -13.6875,-27.375 -38.03125,-31.0625 z m -260.84375,4.84375 10.9375,6.84375 0.78125,-0.34375 3.125,21.875 25.4375,7.8125 3.90625,25.40625 -4.375,29.03125 -23,8.125 -13.34375,-1.75 c -2.63503,-2.22491 -5.26001,-4.49857 -7.84375,-6.78125 l -0.34375,-20.78125 11.78125,-50.875 z m -50.0625,16.46875 10.125,13.8125 -7.3125,16.75 c -5.40025,-6.21528 -10.62261,-12.59211 -15.6875,-19.09375 l 7.40625,-3.5 z m 441.25,49.09375 L 638.28125,842 c 7.92769,9.64244 16.45132,28.81581 18.4375,33.78125 1.07943,2.69862 1.8716,7.83736 2.4375,13.78125 l -43.5,-15.71875 z m -225.75,1.90625 11.78125,25.40625 3.875,2.78125 0,7.03125 -3.875,23.4375 -25.46875,17.625 -1.9375,19.5625 -13.6875,11.71875 -0.125,0.21875 c -7.39516,-2.81986 -14.70003,-5.84591 -21.90625,-9.03125 l -3.40625,-14.625 5.90625,-41.09375 15.59375,-27.375 z m 295.78125,21.53125 33.96875,10.96875 7.96875,2 -14.46875,18.09375 7.03125,18.75 0.21875,6.875 -19.5,-9.75 -8.125,-2.96875 c -0.33187,-8.602 -1.65625,-16.59375 -1.65625,-16.59375 L 666.875,857.78125 z M 811.375,855.1875 c -8.00542,6.99722 -16.23779,13.72031 -24.71875,20.15625 L 775.5,865.6875 l 10.3125,-3.59375 z m -88,12.8125 13.9375,3.53125 19.53125,0.625 17.90625,11.9375 c -17.03602,12.08899 -34.91639,23.03507 -53.5625,32.75 l -10.3125,-5.15625 1.5,-9.53125 -8.21875,-18.75 z m -317.9375,1.53125 22.46875,16.03125 -3.9375,31.28125 -33.84375,36.125 c -11.69098,-3.13069 -23.22781,-6.67708 -34.53125,-10.6875 L 371.1875,932.5 l 1.96875,-11.71875 27.375,-25.40625 z m -112.53125,0.375 -3.65625,42.65625 c -9.30403,-5.08496 -18.41315,-10.46029 -27.3125,-16.15625 l -0.28125,-1.03125 0,-10.1875 13.6875,-5.46875 z m 214.75,5.15625 8.25,37.90625 3.90625,39.09375 17.625,11.78125 0.125,3.875 c -9.36423,0.56935 -18.80502,0.875 -28.3125,0.875 -2.90106,0 -5.79924,-0.0403 -8.6875,-0.0937 l 1.65625,-14.46875 3.90625,-23.5 L 492.4375,911 478.75,897.3125 l -3.3125,-19.875 24.8125,-1.65625 z m 20.0625,5.46875 L 557,905.125 l 9.75,29.34375 0.5625,0.6875 -4.46875,26.71875 -1.90625,3.84375 c -2.61542,0.2928 -5.24649,0.56381 -7.875,0.8125 l 0,-14.46875 -19.5625,-27.375 z m 89.90625,24.59375 37.15625,13.6875 5.78125,0.34375 c 0.0733,4.45599 0.0937,7.5 0.0937,7.5 l 4.5,14.8125 c -20.58572,7.42721 -41.8241,13.42518 -63.65625,17.875 l -6.71875,-8.46875 11.125,-22.25 z m -158.4375,13.6875 17.625,35.21875 0,13.40625 c -18.97162,-1.32291 -37.60796,-3.78643 -55.875,-7.34375 l 8.90625,-6.0625 19.59375,-33.25 z m 216.1875,1.15625 14.59375,0.8125 12.09375,5.4375 c -8.1682,3.78364 -16.42426,7.34695 -24.84375,10.65625 -1.02473,-5.97769 -1.83281,-12.09188 -1.84375,-16.90625 z"
       transform="translate(-6.2765944,-178.21893)"
       id="path2985"
       inkscape:connector-curvature="0"
       sodipodi:nodetypes="sccccccsccsccccccscccccccccccccccccccccccccccccccscccccccccccccccsccccsccccccccccccscccccccccscccccccccccccsccccccccsscccccccscscccccccsccsccsccccccccccccsccccsccccccccsccccccsccccccccccccccccccsccccsccccccccccccccccccccccsccccccccscccccscccsccccccccccccccssccscccccccssccccccccccccccsccsccccccscccscccccsccccccccccccccccccssccsccccsccccccsccccccccccccsccscccccccccccccsscsccccccccscccccsscccccccsscccccccccccccccccccccccccccccccccccccccccccccccccccccccccccccccccccccccccccccccccccccccccccccccccccccccccccccccccccccccccccccccccccccccccccccccccccccccccccccccccccccccccccccccccccccccccccccccccccccccccccccccccccccccccccccccccccccccccccccccccccccccccccccccccccccccccccccccccccscccccccccccccccccccccccccccccccccccccccccccccccccccccccccccccccccsccccccccccccccccccccccccccccccccccccccccccscccccccccccccccccccccccccccscccccccccccccccccccccccccccccccccccccccccccccccccccccccccccccccccccccccccccscccccccccccccccccccccccccccccccccccccccccccccccccccccccccccccccsccccccccccccccccccccccccccccccccccccccc" />
  </g>
</svg>
