<?xml version="1.0" encoding="UTF-8" standalone="no"?>
<!-- Created with Inkscape (http://www.inkscape.org/) -->

<svg
   xmlns:dc="http://purl.org/dc/elements/1.1/"
   xmlns:cc="http://creativecommons.org/ns#"
   xmlns:rdf="http://www.w3.org/1999/02/22-rdf-syntax-ns#"
   xmlns:svg="http://www.w3.org/2000/svg"
   xmlns="http://www.w3.org/2000/svg"
   xmlns:sodipodi="http://sodipodi.sourceforge.net/DTD/sodipodi-0.dtd"
   xmlns:inkscape="http://www.inkscape.org/namespaces/inkscape"
   width="1024"
   height="1024"
   id="svg2"
   version="1.1"
   inkscape:version="0.48.2 r9819"
   sodipodi:docname="logo.svg"
   inkscape:export-filename="/Users/ian/data/git/github/idmillington/dendry/design/logo_1024.png"
   inkscape:export-xdpi="123.86"
   inkscape:export-ydpi="123.86">
  <defs
     id="defs4" />
  <sodipodi:namedview
     id="base"
     pagecolor="#ffffff"
     bordercolor="#666666"
     borderopacity="1.0"
     inkscape:pageopacity="0.0"
     inkscape:pageshadow="2"
     inkscape:zoom="0.213375"
     inkscape:cx="18.708799"
     inkscape:cy="-465.64614"
     inkscape:document-units="px"
     inkscape:current-layer="layer2"
     showgrid="false"
     inkscape:snap-global="false"
     inkscape:window-width="1105"
     inkscape:window-height="1026"
     inkscape:window-x="812"
     inkscape:window-y="0"
     inkscape:window-maximized="0"
     units="px"
     fit-margin-top="5"
     fit-margin-left="5"
     fit-margin-right="5"
     fit-margin-bottom="5" />
  <metadata
     id="metadata7">
    <rdf:RDF>
      <cc:Work
         rdf:about="">
        <dc:format>image/svg+xml</dc:format>
        <dc:type
           rdf:resource="http://purl.org/dc/dcmitype/StillImage" />
        <dc:title />
      </cc:Work>
    </rdf:RDF>
  </metadata>
  <g
     inkscape:groupmode="layer"
     id="layer2"
     inkscape:label="Layer"
     style="display:inline"
     transform="translate(6.2765944,178.21893)">
    <path
       style="color:#000000;fill:#333333;fill-opacity:1;fill-rule:nonzero;stroke:none;stroke-width:0.5;marker:none;visibility:visible;display:inline;overflow:visible;enable-background:accumulate"
       d="M 511.96875 25 C 509.62278 25 507.30686 24.9984 504.96875 25.03125 L 504.90625 25.03125 C 498.41743 25.12395 491.95631 25.3745 485.53125 25.71875 C 485.24531 25.73395 484.97331 25.76535 484.6875 25.78125 C 484.04465 25.80845 483.38783 25.80595 482.75 25.84375 C 480.9215 25.95206 479.10428 26.12151 477.28125 26.25 C 475.53884 26.37274 473.79981 26.4839 472.0625 26.625 C 464.80226 27.21463 457.57297 27.93912 450.40625 28.84375 C 450.26448 28.86155 450.11049 28.88815 449.96875 28.90625 C 446.12044 29.39544 442.28849 29.95279 438.46875 30.53125 C 437.15422 30.73033 435.84231 30.94667 434.53125 31.15625 C 433.86342 31.26428 433.19804 31.35824 432.53125 31.46875 C 432.28864 31.50865 432.055 31.55347 431.8125 31.59375 C 430.0821 31.88302 428.34732 32.1955 426.625 32.5 C 400.88566 37.05263 375.8299 43.60526 351.65625 52.03125 L 351.625 52 C 349.26005 52.82452 346.91325 53.70145 344.5625 54.5625 C 343.52495 54.94254 342.4706 55.30119 341.4375 55.6875 L 341.46875 55.71875 C 340.08515 56.23611 338.72135 56.72044 337.34375 57.25 C 336.35292 57.63081 335.36342 58.08182 334.375 58.46875 C 332.07785 59.36912 329.78 60.22213 327.5 61.15625 C 327.39966 61.19725 327.28785 61.24018 327.1875 61.28125 C 325.59917 61.93322 324.01738 62.613 322.4375 63.28125 C 320.68134 64.02268 318.93113 64.76943 317.1875 65.53125 C 308.92025 69.1441 300.77028 72.98019 292.75 77.03125 L 292.71875 77.03125 C 291.92015 77.43465 291.10892 77.873412 290.3125 78.28125 C 290.3015 78.28715 290.29255 78.27535 290.28125 78.28125 C 289.60551 78.627594 288.92385 78.994249 288.25 79.34375 C 287.17911 79.898633 286.12872 80.437422 285.0625 81 C 283.33596 81.911145 281.58917 82.850051 279.875 83.78125 C 278.82307 84.353723 277.76597 84.919966 276.71875 85.5 C 276.10265 85.84061 275.4874 86.187549 274.875 86.53125 C 273.11721 87.513179 271.33803 88.528266 269.59375 89.53125 C 269.34942 89.671949 269.11906 89.796403 268.875 89.9375 C 266.75253 91.162865 264.63335 92.399932 262.53125 93.65625 C 262.19109 93.859005 261.83908 94.077479 261.5 94.28125 C 261.35768 94.36674 261.23596 94.445541 261.09375 94.53125 C 260.50528 94.885713 259.9306 95.236868 259.34375 95.59375 C 257.72483 96.578139 256.10656 97.59115 254.5 98.59375 C 254.49 98.60055 254.47905 98.58695 254.46875 98.59375 C 253.66995 99.092197 252.85802 99.591014 252.0625 100.09375 C 251.21574 100.6292 250.3745 101.17842 249.53125 101.71875 C 249.52125 101.72575 249.5098 101.71175 249.5 101.71875 C 247.95566 102.7081 246.40713 103.71276 244.875 104.71875 C 243.14865 105.85321 241.46087 107.03165 239.75 108.1875 C 239.74 108.1945 239.6973 108.1805 239.6875 108.1875 C 239.05645 108.61352 238.44151 109.03979 237.8125 109.46875 C 237.00995 110.01606 236.20828 110.57265 235.40625 111.125 C 235.06774 111.35902 234.71288 111.57764 234.375 111.8125 C 233.18656 112.63513 232.0205 113.44828 230.84375 114.28125 C 230.82755 114.29225 230.79745 114.33285 230.78125 114.34375 C 230.54885 114.50842 230.3571 114.67868 230.125 114.84375 C 229.39888 115.35982 228.66037 115.85568 227.9375 116.375 C 226.51449 117.39867 225.06771 118.43018 223.65625 119.46875 C 223.41043 119.64956 223.183 119.84988 222.9375 120.03125 C 222.8803 120.07345 222.8072 120.11395 222.75 120.15625 C 207.94512 131.10283 193.79712 142.88861 180.34375 155.40625 L 180.3125 155.375 C 179.15266 156.45417 178.01715 157.5599 176.875 158.65625 C 176.58203 158.93421 176.2923 159.19007 176 159.46875 C 175.82598 159.63677 175.64251 159.83172 175.46875 160 C 174.23615 161.17868 173.00144 162.3398 171.78125 163.53125 C 171.40697 163.89867 171.06166 164.28855 170.6875 164.65625 C 165.37617 169.87584 160.1623 175.19938 155.09375 180.65625 C 153.9204 181.91974 152.75226 183.19008 151.59375 184.46875 C 151.53965 184.52845 151.49169 184.56535 151.4375 184.625 C 151.32233 184.75213 151.20898 184.90413 151.09375 185.03125 C 143.02479 193.93222 135.30713 203.14317 127.90625 212.625 C 127.03781 213.73762 126.1402 214.81717 125.28125 215.9375 C 124.22528 217.31503 123.16591 218.70509 122.125 220.09375 C 122.0633 220.17605 121.99911 220.26145 121.9375 220.34375 C 120.70124 221.99449 119.49697 223.64563 118.28125 225.3125 C 117.7093 226.09721 117.12984 226.89927 116.5625 227.6875 C 115.98523 228.48891 115.41626 229.31995 114.84375 230.125 C 113.71536 231.70695 112.57564 233.27826 111.46875 234.875 C 111.46175 234.885 111.47575 234.89705 111.46875 234.90625 C 111.35937 235.06605 111.23504 235.21573 111.125 235.375 C 110.13125 236.8124 109.16612 238.23895 108.1875 239.6875 C 108.1805 239.6975 108.1945 239.7402 108.1875 239.75 C 107.41525 240.89382 106.63851 242.00505 105.875 243.15625 C 99.703534 252.46 93.846839 262.01249 88.3125 271.75 C 87.495888 273.18681 86.67737 274.61662 85.875 276.0625 C 85.81858 276.16256 85.77511 276.27495 85.71875 276.375 C 85.069251 277.54738 84.421332 278.69672 83.78125 279.875 C 83.57538 280.25122 83.359839 280.59165 83.15625 280.96875 L 83.1875 281.03125 C 77.382091 291.78512 71.968995 302.77904 66.96875 314 L 66.9375 313.96875 C 66.51452 314.91791 66.100978 315.8874 65.6875 316.84375 C 65.61817 317.00205 65.53791 317.15411 65.46875 317.3125 C 65.326781 317.64092 65.173488 317.95354 65.03125 318.28125 C 56.904099 337.00602 49.973576 356.36065 44.21875 376.21875 L 44.15625 376.25 L 44.125 376.3125 C 43.897082 377.09975 43.661542 377.86737 43.4375 378.65625 C 42.912389 380.50586 42.409525 382.36002 41.90625 384.21875 C 41.88365 384.30195 41.86624 384.38539 41.84375 384.46875 C 40.796107 388.34007 39.828926 392.24732 38.875 396.15625 C 38.546055 397.50866 38.19254 398.86189 37.875 400.21875 C 37.84496 400.3467 37.81124 400.46583 37.78125 400.59375 C 37.531038 401.66296 37.305655 402.74061 37.0625 403.8125 C 36.748933 405.18118 36.424303 406.56271 36.125 407.9375 C 36.09716 408.06587 36.05898 408.18407 36.03125 408.3125 C 35.631124 410.15759 35.254137 412.02218 34.875 413.875 C 34.700671 414.73046 34.544867 415.58043 34.375 416.4375 C 34.194295 417.34923 34.019339 418.27437 33.84375 419.1875 C 33.72823 419.786 33.613324 420.36947 33.5 420.96875 C 33.341574 421.80955 33.18536 422.6579 33.03125 423.5 C 32.811475 424.69683 32.617257 425.89386 32.40625 427.09375 C 32.3113 427.63527 32.186938 428.17661 32.09375 428.71875 C 31.916384 429.74793 31.764645 430.78113 31.59375 431.8125 C 31.37213 433.15272 31.148392 434.4683 30.9375 435.8125 C 30.831985 436.48412 30.69651 437.17125 30.59375 437.84375 C 30.428525 438.92591 30.283316 440.00876 30.125 441.09375 C 26.746315 464.24849 25 487.93936 25 512.03125 C 25 521.16138 25.285293 530.2126 25.78125 539.21875 L 25.71875 539.1875 C 25.7837 540.3678 25.858818 541.56678 25.9375 542.75 C 25.94904 542.93572 25.95698 543.12686 25.96875 543.3125 C 25.98194 543.51183 26.01842 543.70752 26.03125 543.90625 C 26.942064 558.00311 28.446101 571.9116 30.53125 585.65625 C 30.55735 585.82825 30.56747 585.98429 30.59375 586.15625 C 30.62345 586.32732 30.66115 586.51628 30.6875 586.6875 C 30.971137 588.53048 31.28951 590.35139 31.59375 592.1875 C 31.67112 592.65678 31.733474 593.15624 31.8125 593.625 C 32.037091 594.95713 32.266027 596.26567 32.5 597.59375 C 32.56572 597.96451 32.620943 598.34828 32.6875 598.71875 C 32.802195 599.36147 32.914101 599.98316 33.03125 600.625 C 33.25149 601.82317 33.489754 603.02368 33.71875 604.21875 C 33.93565 605.3564 34.149095 606.5212 34.375 607.65625 C 34.491276 608.24051 34.600361 608.82273 34.71875 609.40625 C 34.77113 609.66433 34.822212 609.89831 34.875 610.15625 C 35.280468 612.1304 35.696168 614.09273 36.125 616.0625 C 36.20879 616.44737 36.290293 616.83417 36.375 617.21875 L 36.4375 617.21875 C 40.383077 635.13714 45.296881 652.69454 51.15625 669.8125 C 51.738601 671.51383 52.336893 673.21349 52.9375 674.90625 C 53.290966 675.90542 53.640155 676.91017 54 677.90625 C 54.502637 679.29384 54.985143 680.68084 55.5 682.0625 C 55.826009 682.93737 56.169114 683.78376 56.5 684.65625 C 56.54813 684.78311 56.57677 684.9044 56.625 685.03125 C 57.283997 686.7649 57.947628 688.49356 58.625 690.21875 C 58.66979 690.33255 58.7051 690.44873 58.75 690.5625 C 58.7567 690.5795 58.80576 690.57665 58.8125 690.59375 C 59.489957 692.3145 60.147934 694.07019 60.84375 695.78125 C 60.88465 695.88158 60.92776 695.99339 60.96875 696.09375 C 61.253898 696.79176 61.55546 697.49112 61.84375 698.1875 C 62.266076 699.21412 62.691201 700.2204 63.125 701.25 C 63.16727 701.35019 63.20767 701.46243 63.25 701.5625 C 63.2573 701.5796 63.27398 701.57655 63.28125 701.59375 C 64.003812 703.3047 64.72658 705.05043 65.46875 706.75 C 69.949416 717.01008 74.784739 727.0605 79.9375 736.9375 C 80.288732 737.61075 80.645717 738.26611 81 738.9375 C 81.907531 740.66773 82.820842 742.41447 83.75 744.125 C 83.7592 744.1419 83.77207 744.1705 83.78125 744.1875 C 83.952925 744.5 84.14176 744.81241 84.3125 745.125 C 85.081225 746.53252 85.842827 747.91347 86.625 749.3125 C 87.080931 750.12798 87.508151 750.93718 87.96875 751.75 C 88.235671 752.22107 88.512806 752.68618 88.78125 753.15625 C 95.15045 764.30969 101.95293 775.17123 109.15625 785.75 C 109.25445 785.89416 109.37044 786.04344 109.46875 786.1875 C 111.24261 788.78658 113.0212 791.37488 114.84375 793.9375 C 114.98571 794.13748 115.13901 794.3315 115.28125 794.53125 C 116.27264 795.92077 117.27568 797.30888 118.28125 798.6875 C 118.9898 799.66031 119.69 800.62623 120.40625 801.59375 C 120.79574 802.11948 121.17095 802.66338 121.5625 803.1875 C 133.15483 818.70473 145.67862 833.48937 159 847.5 L 159 847.53125 C 159.15364 847.69281 159.3149 847.83865 159.46875 848 C 160.29243 848.8594 161.13529 849.74448 161.96875 850.59375 C 162.49496 851.13762 163.00254 851.67734 163.53125 852.21875 C 163.63005 852.31962 163.74501 852.39903 163.84375 852.5 C 164.36588 853.03373 164.88169 853.56241 165.40625 854.09375 C 166.15059 854.84773 166.90704 855.59462 167.65625 856.34375 C 168.74504 857.43338 169.83888 858.51393 170.9375 859.59375 C 171.22559 859.8764 171.49245 860.18679 171.78125 860.46875 C 171.98277 860.66587 172.2044 860.86571 172.40625 861.0625 C 172.76064 861.40735 173.11331 861.74997 173.46875 862.09375 C 173.61369 862.23424 173.76113 862.39107 173.90625 862.53125 C 174.60347 863.20385 175.2988 863.8628 176 864.53125 C 177.17568 865.65082 178.34442 866.76294 179.53125 867.875 C 181.19619 869.43103 182.84455 870.96719 184.53125 872.5 C 185.28565 873.18722 186.05367 873.84885 186.8125 874.53125 C 187.00005 874.6999 187.1874 874.89391 187.375 875.0625 C 188.41819 875.99586 189.47999 876.91926 190.53125 877.84375 C 191.44567 878.65493 192.35759 879.48088 193.28125 880.28125 C 193.28925 880.28825 193.3044 880.27425 193.3125 880.28125 C 193.61767 880.54562 193.91292 880.83018 194.21875 881.09375 L 194.3125 881.09375 C 196.77225 883.21297 199.18529 885.30448 201.6875 887.375 C 201.7576 887.433 201.83599 887.4732 201.90625 887.53125 C 203.22832 888.62398 204.57248 889.70227 205.90625 890.78125 C 224.31294 905.67193 243.803 919.28684 264.28125 931.40625 C 264.29795 931.41625 264.32685 931.4276 264.34375 931.4375 C 264.83811 931.72998 265.34829 932.02171 265.84375 932.3125 C 266.96962 932.97297 268.08784 933.63035 269.21875 934.28125 C 270.86278 935.22844 272.53144 936.16528 274.1875 937.09375 C 283.51348 942.32233 293.02642 947.22401 302.71875 951.84375 L 302.71875 951.90625 C 303.86991 952.45485 305.03136 952.99143 306.1875 953.53125 C 306.1985 953.53725 306.20705 953.52525 306.21875 953.53125 C 307.99346 954.35978 309.77643 955.19249 311.5625 956 C 311.5749 956.006 311.6133 955.994 311.625 956 C 313.41075 956.80718 315.17133 957.61991 316.96875 958.40625 C 316.98115 958.41225 316.988 958.40025 317 958.40625 C 317.74251 958.73106 318.47436 959.05376 319.21875 959.375 C 322.1017 960.6188 324.9948 961.84185 327.90625 963.03125 C 329.22462 963.56992 330.58214 964.06634 331.90625 964.59375 C 332.1077 964.67405 332.29841 964.76378 332.5 964.84375 C 332.81466 964.96855 333.12251 965.12582 333.4375 965.25 C 335.17989 965.93843 336.93599 966.57798 338.6875 967.25 C 339.27558 967.474 339.87958 967.71572 340.46875 967.9375 C 341.95242 968.4998 343.41503 969.04901 344.90625 969.59375 L 344.90625 969.5625 C 352.33778 972.27675 359.84169 974.82998 367.4375 977.1875 L 367.40625 977.21875 C 369.23976 977.78806 371.09478 978.29561 372.9375 978.84375 C 374.41167 979.27822 375.86368 979.76762 377.34375 980.1875 C 379.71155 980.86731 382.08632 981.51153 384.46875 982.15625 C 385.43659 982.41811 386.40478 982.65021 387.375 982.90625 C 416.22065 990.51863 446.13294 995.55859 476.8125 997.75 C 477.27091 997.7827 477.72874 997.81225 478.1875 997.84375 C 478.3868 997.85745 478.58191 997.8615 478.78125 997.875 C 481.50254 998.05839 484.20414 998.20522 486.9375 998.34375 C 487.70688 998.38335 488.47968 998.46403 489.25 998.5 C 491.27039 998.5929 493.31703 998.61927 495.34375 998.6875 C 495.91551 998.7069 496.45894 998.76405 497.03125 998.78125 L 497.03125 998.75 C 502.0037 998.90013 507.02239 999 512.03125 999 C 520.91497 999 529.7335 998.75088 538.5 998.28125 L 538.5 998.3125 C 539.7303 998.2466 540.95797 998.14061 542.1875 998.0625 C 542.55848 998.0388 542.94164 998.05545 543.3125 998.03125 C 544.13978 997.97885 544.95507 997.90026 545.78125 997.84375 C 548.21107 997.67741 550.6426 997.48308 553.0625 997.28125 C 574.86322 995.46288 596.26683 992.2201 617.15625 987.625 C 617.7684 987.4903 618.35575 987.34779 618.96875 987.21875 C 619.16798 987.17405 619.3946 987.13865 619.59375 987.09375 C 638.24661 982.88981 656.47617 977.58908 674.25 971.3125 C 676.39901 970.5536 678.55246 969.78808 680.6875 969 C 682.14655 968.46418 683.58024 967.92512 685.03125 967.375 C 685.70114 967.12034 686.39401 966.88252 687.0625 966.625 C 705.98362 959.33575 724.33536 950.87349 742.03125 941.375 L 742.0625 941.375 C 742.76455 940.998 743.48548 940.59923 744.1875 940.21875 C 744.98471 939.7867 745.77032 939.37368 746.5625 938.9375 C 747.48127 938.4309 748.39739 937.88763 749.3125 937.375 C 751.01408 936.42384 752.71734 935.43966 754.40625 934.46875 C 755.47445 933.85452 756.52665 933.24279 757.59375 932.625 C 758.0097 932.38163 758.42858 932.15081 758.84375 931.90625 C 759.05892 931.77952 759.28529 931.65849 759.5 931.53125 C 760.74128 930.79744 761.98457 930.05699 763.21875 929.3125 C 763.66327 929.04385 764.08804 928.76958 764.53125 928.5 C 766.39101 927.37003 768.25045 926.21656 770.09375 925.0625 C 779.14053 919.39849 787.99005 913.44779 796.625 907.21875 C 796.93974 906.99171 797.24833 906.75903 797.5625 906.53125 C 797.93428 906.26116 798.31694 905.99003 798.6875 905.71875 C 800.64193 904.29335 802.56777 902.8599 804.5 901.40625 C 823.94115 886.78044 842.22498 870.72193 859.25 853.40625 C 859.64551 853.004 860.07464 852.6222 860.46875 852.21875 C 861.66005 850.9987 862.82146 849.76373 864 848.53125 C 864.16775 848.35608 864.36376 848.17539 864.53125 848 C 865.92399 846.53919 867.31283 845.07176 868.6875 843.59375 C 869.96941 842.21796 871.23391 840.85984 872.5 839.46875 C 872.75802 839.18489 872.99267 838.87823 873.25 838.59375 C 912.93356 794.72506 944.74488 743.60086 966.4375 687.4375 C 967.19605 685.47355 967.92252 683.50742 968.65625 681.53125 C 970.84878 675.62612 972.93878 669.667 974.90625 663.65625 C 974.99645 663.3811 975.12002 663.11471 975.21875 662.84375 C 975.30255 662.58642 975.38543 662.32004 975.46875 662.0625 C 976.03092 660.32467 976.55062 658.59007 977.09375 656.84375 C 977.29715 656.18969 977.48677 655.53023 977.6875 654.875 C 978.07405 653.62041 978.46763 652.38381 978.84375 651.125 C 978.84775 651.1112 978.83975 651.0756 978.84375 651.0625 C 979.04797 650.376 979.23643 649.71394 979.4375 649.03125 C 979.5627 648.60338 979.71973 648.17834 979.84375 647.75 C 979.84775 647.7376 979.83975 647.7012 979.84375 647.6875 C 984.6554 631.0646 988.61985 614.08499 991.65625 596.78125 C 991.92218 595.26597 992.15296 593.71161 992.40625 592.1875 C 992.67149 590.59135 992.93779 589.00737 993.1875 587.40625 C 993.2523 586.99044 993.34253 586.5722 993.40625 586.15625 C 993.5547 585.18464 993.66981 584.22347 993.8125 583.25 C 994.99751 575.16525 995.99862 567.05256 996.78125 558.84375 C 996.80705 558.57305 996.8497 558.27083 996.875 558 C 997.03366 556.30588 997.13997 554.63662 997.28125 552.9375 C 997.4459 550.95728 997.60912 548.95563 997.75 546.96875 C 997.8356 545.74396 997.95444 544.53976 998.03125 543.3125 C 998.07015 542.69946 998.05715 542.08241 998.09375 541.46875 C 998.12065 541.01155 998.1617 540.5513 998.1875 540.09375 C 998.2441 539.09743 998.29369 538.09305 998.34375 537.09375 C 998.37765 536.42587 998.4063 535.76232 998.4375 535.09375 C 998.79357 527.45282 999 519.76031 999 512.03125 C 999 505.41065 998.88663 498.8064 998.625 492.25 C 998.617 492.05023 998.5707 491.85596 998.5625 491.65625 C 998.4963 490.08482 998.42957 488.50518 998.34375 486.9375 C 998.27995 485.67795 998.22964 484.4445 998.15625 483.1875 C 997.98782 480.30248 997.81221 477.40257 997.59375 474.53125 C 997.58375 474.40219 997.54115 474.28534 997.53125 474.15625 C 995.57532 448.71259 991.65322 423.82375 985.9375 399.625 C 985.66381 398.46649 985.40613 397.31197 985.125 396.15625 C 984.95785 395.47118 984.79507 394.77768 984.625 394.09375 C 984.16689 392.25112 983.69781 390.42802 983.21875 388.59375 C 981.74454 382.94909 980.16969 377.34412 978.5 371.78125 C 978.0402 370.24967 977.56518 368.71283 977.09375 367.1875 C 977.02845 366.97614 977.00355 366.77371 976.9375 366.5625 L 976.875 366.5625 C 976.41052 365.07626 975.97831 363.57385 975.5 362.09375 C 975.4346 361.89136 975.37828 361.702 975.3125 361.5 C 974.98458 360.48985 974.64683 359.47599 974.3125 358.46875 C 974.01566 357.58477 973.70733 356.69581 973.40625 355.8125 C 973.23737 355.31333 973.07672 354.81094 972.90625 354.3125 C 972.61843 353.47196 972.32359 352.61959 972.03125 351.78125 C 971.84108 351.23588 971.62985 350.70116 971.4375 350.15625 C 970.56449 347.67731 969.69306 345.21037 968.78125 342.75 C 968.31475 341.49353 967.84864 340.25477 967.375 339 C 966.64765 337.08652 965.90695 335.1831 965.15625 333.28125 C 965.13995 333.23975 965.1354 333.16887 965.125 333.125 C 965.119 333.1126 965.131 333.10595 965.125 333.09375 C 964.43857 331.35885 963.74107 329.62588 963.03125 327.90625 C 962.4694 326.53095 961.8865 325.18148 961.3125 323.8125 C 951.56891 300.575 940.0785 278.27291 927 257.03125 C 926.47897 256.18502 925.92897 255.34447 925.40625 254.5 C 924.66472 253.30203 923.9438 252.09488 923.1875 250.90625 L 923.15625 250.90625 C 918.15135 243.04133 912.9039 235.29968 907.46875 227.75 C 905.83651 225.48275 904.20128 223.23781 902.53125 221 C 902.43905 220.8763 902.34227 220.74863 902.25 220.625 C 900.95286 218.89031 899.6321 217.15421 898.3125 215.4375 C 898.1212 215.1883 897.91113 214.96693 897.71875 214.71875 C 896.23404 212.79497 894.76267 210.86953 893.25 208.96875 C 892.9282 208.56438 892.60431 208.15332 892.28125 207.75 C 892.01589 207.41841 891.73499 207.08088 891.46875 206.75 C 890.1185 205.07322 888.77818 203.40839 887.40625 201.75 C 887.26451 201.57869 887.14198 201.38988 887 201.21875 L 886.9375 201.21875 C 877.78946 190.19187 868.196 179.58101 858.125 169.40625 C 857.79881 169.07673 857.45211 168.73481 857.125 168.40625 C 856.86871 168.14882 856.60084 167.91261 856.34375 167.65625 C 855.23793 166.55029 854.14762 165.4391 853.03125 164.34375 C 852.75792 164.07566 852.4927 163.79871 852.21875 163.53125 C 851.01312 162.35391 849.78023 161.19614 848.5625 160.03125 C 848.37319 159.85021 848.18961 159.64949 848 159.46875 C 847.9561 159.42685 847.919 159.38565 847.875 159.34375 C 847.7357 159.21098 847.60823 159.10127 847.46875 158.96875 C 846.24382 157.80477 845.01441 156.64772 843.78125 155.5 C 843.41388 155.15799 843.02469 154.80963 842.65625 154.46875 C 841.5911 153.48343 840.54279 152.47607 839.46875 151.5 C 838.98805 151.06306 838.48244 150.65381 838 150.21875 C 837.78298 150.02307 837.56113 149.8203 837.34375 149.625 C 827.23886 140.54579 816.74782 131.87522 805.90625 123.65625 C 803.50971 121.83943 801.11844 120.05442 798.6875 118.28125 C 798.4477 118.10633 798.20889 117.92448 797.96875 117.75 C 795.2811 115.79706 792.54126 113.86767 789.8125 111.96875 C 778.60433 104.16919 767.08727 96.854709 755.21875 90 C 755.19125 89.98405 755.1525 89.9533 755.125 89.9375 C 753.19299 88.82217 751.26114 87.714448 749.3125 86.625 C 749.09997 86.50625 748.86899 86.399766 748.65625 86.28125 C 747.1678 85.450425 745.68571 84.597147 744.1875 83.78125 C 744.1765 83.77575 744.136 83.78675 744.125 83.78125 C 743.70902 83.555281 743.28753 83.322867 742.875 83.09375 C 742.58966 82.939842 742.31693 82.778358 742.03125 82.625 C 741.19397 82.174244 740.34023 81.758458 739.5 81.3125 C 739.31457 81.21437 739.15543 81.097817 738.96875 81 C 738.55697 80.782718 738.13122 80.59113 737.71875 80.375 C 736.54849 79.760252 735.39469 79.136407 734.21875 78.53125 C 734.06008 78.44979 733.87756 78.363199 733.71875 78.28125 C 733.37786 78.106642 733.06009 77.92383 732.71875 77.75 C 721.13845 71.85261 709.27953 66.41256 697.1875 61.4375 C 695.90439 60.90958 694.63234 60.39225 693.34375 59.875 C 692.77305 59.64593 692.19676 59.41448 691.625 59.1875 C 690.14901 58.60156 688.67054 58.00939 687.1875 57.4375 C 686.47729 57.16362 685.74589 56.89274 685.03125 56.625 C 683.76138 56.1422 682.52494 55.69124 681.25 55.21875 C 670.90397 51.38467 660.38267 47.91873 649.71875 44.78125 C 649.57671 44.73945 649.45049 44.66717 649.3125 44.625 C 646.59889 43.8291 643.88932 43.06219 641.15625 42.3125 C 638.69138 41.63635 636.23033 40.95072 633.75 40.3125 C 633.47928 40.2428 633.20838 40.16294 632.9375 40.09375 C 631.26387 39.66348 629.55554 39.28764 627.875 38.875 C 626.14067 38.44917 624.39789 38.03142 622.65625 37.625 C 622.44085 37.5747 622.24674 37.48742 622.03125 37.4375 C 621.61951 37.3424 621.19337 37.28151 620.78125 37.1875 C 619.28346 36.84464 617.78438 36.4842 616.28125 36.15625 L 616.25 36.21875 C 596.41449 31.89437 576.09544 28.76318 555.4375 26.9375 C 552.13711 26.64582 548.85023 26.38176 545.53125 26.15625 C 545.24571 26.13685 544.94192 26.0815 544.65625 26.0625 C 544.20044 26.0321 543.7687 25.99785 543.3125 25.96875 C 540.16739 25.76941 537.00481 25.60811 533.84375 25.46875 C 533.54511 25.45495 533.23629 25.4503 532.9375 25.4375 C 530.16005 25.32013 527.38304 25.2269 524.59375 25.15625 C 524.03958 25.14215 523.49213 25.1371 522.9375 25.125 C 522.6102 25.118 522.26493 25.132 521.9375 25.125 C 518.63654 25.0591 515.34772 25 512.03125 25 L 511.96875 25 z M 528.53125 50.84375 L 538.25 82.03125 L 535.46875 83.65625 L 525.5 137.6875 L 504.1875 111.03125 L 494.65625 80.96875 L 528.53125 50.84375 z M 467.3125 51.75 L 451.875 62.75 L 451.46875 53.4375 C 456.72198 52.77839 462.00558 52.2301 467.3125 51.75 z M 554.375 52.09375 C 563.96672 53.02909 573.4654 54.29636 582.875 55.8125 L 561.75 68.21875 C 559.48997 63.28979 556.96909 57.81877 554.375 52.09375 z M 427.21875 57.125 L 427.78125 79.90625 L 409.59375 101.125 L 386.84375 71.9375 L 380.28125 68.21875 C 395.60461 63.74552 411.27802 59.99856 427.21875 57.125 z M 625.15625 64.65625 C 627.93321 65.37819 630.68125 66.10265 633.4375 66.875 L 636.53125 82.34375 L 596.09375 105.1875 C 596.09375 105.1875 581.1625 117.61693 569.125 129 L 572.65625 107.15625 L 625.15625 64.65625 z M 366.8125 72.375 L 380.96875 81.6875 L 400.65625 111.5625 L 380.9375 134.53125 L 346.5 108.21875 L 341.65625 81.40625 C 349.92719 78.163506 358.31578 75.14375 366.8125 72.375 z M 664.46875 76.78125 C 667.41368 77.83842 670.33326 78.94725 673.25 80.0625 L 665.875 108.21875 L 657.5625 82.375 L 658.6875 81.6875 L 664.46875 76.78125 z M 681.4375 83.28125 C 697.36745 89.727618 712.89169 97.064463 727.875 105.1875 L 731.34375 129.625 L 719.3125 122.75 L 701.71875 128.65625 L 673.40625 156.9375 L 674.34375 134.53125 L 672.28125 128.0625 L 681.4375 83.28125 z M 488.21875 86.6875 L 492.15625 101.34375 L 475.96875 97.59375 L 488.21875 86.6875 z M 638.84375 93.9375 L 646.96875 134.53125 L 632.375 207.3125 L 611.65625 217.65625 L 623.46875 171.65625 L 609.78125 130.59375 L 599.1875 122.34375 L 607.8125 113 L 638.84375 93.9375 z M 472.1875 101 L 494.59375 110.3125 L 496.375 116.90625 L 522.8125 152.40625 L 521.78125 157.96875 L 510.0625 234.25 L 486.875 269.5625 L 464.3125 198.78125 L 470.71875 102.28125 L 472.1875 101 z M 462.90625 109.375 L 457.21875 163.84375 L 455.25 170.375 L 449.4375 152.125 L 442.65625 143.4375 L 462.90625 109.375 z M 281.78125 110.0625 L 314.4375 134.53125 L 341.8125 187.3125 L 325.3125 233.875 L 292.90625 167.78125 L 254.15625 127.15625 C 263.15284 121.13674 272.35086 115.44803 281.78125 110.0625 z M 750.75 117.4375 C 751.59098 117.98144 760.06908 124.35698 760.90625 124.90625 L 756 128.71875 L 750.75 117.4375 z M 714.25 132.15625 L 732.78125 139.5625 L 705.625 193.1875 L 671.6875 199 L 672.6875 174.90625 L 688.03125 154.09375 L 714.25 132.15625 z M 588.75 133.5 L 601.96875 142.34375 L 613.71875 173.625 L 608.34375 219.34375 L 591.125 227.9375 L 574.5625 189.28125 L 565.375 180.09375 L 564.90625 159.125 L 588.75 133.5 z M 778.28125 136.9375 C 798.55374 151.61079 817.5951 167.84784 835.1875 185.5625 L 834.71875 193.1875 L 791.71875 189.28125 L 754.53125 189.28125 L 744.71875 185.34375 L 758.125 150.21875 L 770.1875 156.0625 L 789.75 181.46875 L 778.03125 154.09375 L 761.25 145.125 L 778.28125 136.9375 z M 251.84375 144.71875 L 283.15625 181.46875 L 294.84375 210.6875 L 263.625 208.84375 L 250.9375 217.28125 L 251.84375 175.59375 L 251.84375 144.71875 z M 210.71875 160.125 L 203.8125 173.96875 L 199.1875 170.34375 C 202.97868 166.87261 206.81236 163.46894 210.71875 160.125 z M 432.6875 160.25 L 437.65625 167.78125 L 459.1875 228.40625 L 468.21875 297.9375 L 465.03125 302.71875 L 451.1875 334.71875 L 441.59375 302.71875 L 403.5625 247.0625 L 404.40625 240.125 L 425.9375 218.59375 L 420.0625 181.46875 L 432.6875 160.25 z M 185.53125 183.34375 L 204.6875 207.46875 L 206.875 247.9375 L 169.4375 214.125 L 165.40625 204.65625 C 171.88442 197.34809 178.60556 190.22461 185.53125 183.34375 z M 566.0625 210.46875 L 570.6875 216.6875 L 574.96875 236 L 566.75 240.125 L 566.0625 210.46875 z M 834.34375 219.8125 L 829.34375 241.09375 L 811.4375 273.3125 L 781.75 299.34375 L 778.03125 296.84375 L 766.90625 293.375 L 764.3125 273.375 L 724.03125 243.21875 L 738.875 226.4375 L 790.78125 220.5625 L 834.34375 219.8125 z M 279.21875 220.5625 L 303.6875 232.8125 L 317.875 268.21875 L 308.59375 345.75 L 263.625 308.59375 L 249.90625 265.53125 L 250.65625 232.34375 L 279.21875 220.5625 z M 860.15625 220.5625 L 867.40625 221.6875 C 876.164 232.58144 884.46756 243.8544 892.21875 255.53125 L 878.53125 274.65625 L 848.40625 271.4375 L 860.15625 238.1875 L 860.15625 220.5625 z M 131.71875 247.46875 L 134.53125 247.9375 L 159.9375 273.375 L 173.03125 294.125 L 169.5 311.84375 L 132.90625 315.125 L 104.03125 292.71875 C 112.40375 277.08123 121.65504 261.95826 131.71875 247.46875 z M 694.65625 252.375 L 740.84375 279.28125 L 742.71875 286.75 L 693.90625 283.15625 L 650.90625 293.46875 L 658 263.4375 L 662.59375 261.65625 L 694.65625 252.375 z M 898.46875 265.25 C 901.7802 270.52118 905.02465 275.83763 908.125 281.25 L 903.15625 277.3125 L 892.96875 276.1875 L 898.46875 265.25 z M 633 276.15625 L 619.59375 316.40625 L 611 290.6875 L 633 276.15625 z M 399.3125 281.84375 L 404.40625 291 L 429.84375 332.0625 L 434.3125 373.65625 L 414.21875 420.0625 L 400.90625 406.125 L 394.625 320.3125 L 399.3125 281.84375 z M 709.5625 298.8125 L 746.875 303.34375 L 752.125 324.4375 L 674.34375 363.34375 L 629.84375 365.78125 L 648.875 345.75 L 645 318.375 L 646.15625 313.46875 L 709.5625 298.8125 z M 595.1875 301.125 L 600.03125 343.78125 L 566.78125 371.3125 L 533.5 375.125 L 551.25 330.125 L 595.1875 301.125 z M 98 304.46875 L 110.5625 320.21875 L 88.875 330.15625 L 86.78125 328.59375 C 90.280977 320.4181 94.047745 312.39208 98 304.46875 z M 768.46875 305.96875 L 773.28125 306.5625 L 769.03125 310.15625 L 768.46875 305.96875 z M 180.5625 306.0625 L 183.375 310.5625 L 179.75 310.875 L 180.5625 306.0625 z M 864.0625 308.59375 L 903.15625 316.40625 L 935 336.53125 C 938.72197 345.69645 942.11391 355.01997 945.25 364.46875 L 928.625 363.34375 L 872.53125 344.65625 L 871.875 343.78125 L 820.53125 322.28125 L 832.78125 310.5625 L 864.0625 308.59375 z M 802.84375 339.21875 L 817.03125 344.09375 L 834.71875 359.4375 L 830.8125 392.6875 L 844.5 412.25 L 838.65625 392.6875 L 846.46875 357.46875 L 842.15625 352.65625 L 856.21875 357.46875 L 891.4375 394.65625 L 903.71875 436.15625 L 817.84375 437.53125 L 811.25 392.6875 L 781.28125 361.25 L 787.78125 353.59375 L 802.84375 339.21875 z M 152.125 353.59375 L 146.25 369.21875 L 165.8125 380.96875 L 171.28125 379.4375 L 179.40625 377.15625 L 201.03125 371.1875 L 234.25 398.5625 L 277.3125 445.53125 L 283.125 515.90625 L 265.53125 539.40625 L 249.90625 582.40625 L 220.5625 613.6875 L 191.25 607.875 L 154.09375 601.96875 L 109.5 603.15625 L 89.53125 576.53125 L 52.6875 559.96875 C 50.85701 543.30825 49.90625 526.39825 49.90625 509.25 C 49.90625 467.00114 55.603022 426.07631 66.28125 387.21875 L 68 384.875 L 99.3125 359.4375 L 152.125 353.59375 z M 888.4375 366.78125 L 928.625 375.125 L 948.25 373.78125 C 951.40445 384.01837 954.24324 394.40881 956.6875 404.9375 L 930.53125 435.75 L 917.9375 435.9375 L 907.09375 392.6875 L 888.4375 366.78125 z M 776.0625 371.1875 L 801.46875 396.59375 L 808.46875 437.1875 L 776.0625 418.4375 L 776.0625 371.1875 z M 763.6875 381.90625 L 767.1875 414.5625 L 742.8125 406.375 L 763.6875 381.90625 z M 960.71875 424.1875 C 962.65442 434.52591 964.23822 444.96124 965.46875 455.53125 L 948.15625 445.5 L 960.71875 424.1875 z M 643.03125 459.1875 L 693.90625 459.1875 L 731.03125 468.96875 L 756.65625 494.59375 L 759.0625 497 L 770.1875 508.09375 L 805.40625 508.09375 L 827.8125 518.34375 L 838.65625 541.34375 L 854.21875 573.5 L 863.25 610.0625 L 862.96875 717.5 L 869.65625 705.78125 L 876.34375 603.28125 L 867.0625 561.5625 L 854.3125 527.125 L 899.28125 551.125 L 944.25 617.625 L 950.46875 637.28125 L 948.03125 645.15625 L 948.125 645.21875 C 927.26252 712.64731 891.28383 773.40301 844.15625 823.59375 L 836.6875 822.96875 L 791.71875 824.9375 L 746.6875 838.65625 L 719.3125 830.8125 L 643.03125 799.53125 L 590.21875 774.09375 L 557 758.46875 L 532.90625 740.21875 L 522.875 722.21875 L 523.4375 646.03125 L 519 613.09375 L 490.5 564.8125 L 511.96875 498.34375 L 560.875 474.84375 L 636.3125 460.46875 L 643.03125 459.1875 z M 940.34375 463.125 L 967.4375 476.625 C 968.19235 487.39243 968.59375 498.29055 968.59375 509.25 C 968.59375 514.23367 968.47001 519.17962 968.3125 524.125 L 961.875 521.78125 L 931.78125 515.28125 L 928.625 478.75 L 925.1875 465 L 940.34375 463.125 z M 912.65625 466.59375 L 916.84375 480.6875 L 921.78125 513.09375 L 916.84375 512.03125 L 858.1875 480.6875 L 842.53125 472.875 L 893.40625 468.96875 L 912.65625 466.59375 z M 940.34375 543.3125 L 967.09375 546.40625 C 966.14995 558.1882 964.75361 569.8607 962.9375 581.375 L 959.9375 581.21875 L 940.34375 543.3125 z M 55.4375 583.25 L 69.03125 593.59375 L 75.84375 604.625 L 76.71875 613.46875 L 61.3125 609.53125 C 59.844342 601.80039 56.512954 591.11289 55.4375 583.25 z M 64.71875 625.34375 L 71.9375 627.40625 L 109.96875 634.03125 L 104.5625 648.125 L 111.78125 654.5 L 91.5 662.625 L 77.0625 665.1875 C 72.364081 652.17001 68.24413 638.87742 64.71875 625.34375 z M 125.03125 635.625 L 144.25 636.53125 L 122.875 649.59375 L 125.03125 635.625 z M 174.5 645.71875 L 198.3125 658.09375 L 181.46875 690 L 188.40625 714.21875 L 141.28125 709.8125 C 141.94133 700.77926 143.34611 684.48801 145.1875 678.625 C 146.27137 675.17397 142.51192 669.73547 137.78125 664.5625 L 167.78125 664.5625 L 174.5 645.71875 z M 125.28125 666.40625 L 134.8125 674.8125 C 134.8125 674.8125 130.55265 691.09619 128 702.59375 L 114.9375 693.90625 L 86.625 689.40625 C 85.159583 685.97293 83.727343 682.53817 82.34375 679.0625 L 107.15625 676.3125 L 125.28125 666.40625 z M 224.34375 673.03125 L 242.09375 684.09375 L 240.125 697.78125 L 201.03125 715.40625 L 203 682.1875 L 212.75 676.3125 L 224.34375 673.03125 z M 99.0625 716.1875 L 114.9375 723.25 L 106.625 730.53125 C 104.02225 725.80529 101.50182 721.0131 99.0625 716.1875 z M 326.21875 719.3125 L 335.96875 766.25 L 334 785.84375 L 291 815.15625 L 290.5625 818.96875 C 289.75592 805.76784 289.03125 793.05563 289.03125 789.75 C 289.03125 781.92645 296.84375 764.3125 296.84375 764.3125 L 292.65625 739.15625 L 326.21875 719.3125 z M 428.40625 734.53125 L 443.53125 774.09375 L 459.1875 801.46875 L 502.21875 836.6875 L 504.3125 853.625 L 502.21875 852.34375 L 460.21875 855.40625 L 422.03125 807.3125 L 403.15625 767.75 L 428.40625 734.53125 z M 128.625 742.8125 L 144.28125 742.8125 L 132.5625 768.21875 L 130.75 769.59375 C 125.80699 762.4213 121.06911 755.08436 116.53125 747.625 L 128.625 742.8125 z M 281.3125 745.125 L 287.0625 762.34375 L 279.21875 785.84375 L 288.4375 833.125 L 264.78125 847.3125 L 269.46875 830.8125 L 269.46875 795.59375 L 244.0625 779.9375 L 249.03125 757.53125 L 273.375 746.6875 L 281.3125 745.125 z M 175.59375 756.5 L 190.3125 758.46875 L 203 791.71875 L 197.09375 830.8125 L 198.4375 847.46875 C 189.00419 838.79596 179.96141 829.70767 171.28125 820.28125 L 175.59375 807.3125 L 175.59375 789.75 L 166.78125 769.28125 L 175.59375 756.5 z M 470.46875 758.5 L 500.25 779.9375 L 545.25 801.46875 L 568.71875 854.3125 L 586.34375 887.53125 L 574.40625 914.0625 L 570.6875 899.28125 L 553.0625 881.15625 L 527.625 852.75 L 525.75 846.9375 L 525.65625 832.78125 L 511.96875 805.40625 L 473.9375 774.34375 L 470.46875 758.5 z M 209.625 763.34375 L 220.5625 770.1875 L 221.34375 769.84375 L 224.46875 791.71875 L 249.90625 799.53125 L 253.8125 824.9375 L 249.4375 853.96875 L 226.4375 862.09375 L 213.09375 860.34375 C 210.45872 858.11884 207.83374 855.84518 205.25 853.5625 L 204.90625 832.78125 L 216.6875 781.90625 L 209.625 763.34375 z M 159.5625 779.8125 L 169.6875 793.625 L 162.375 810.375 C 156.97475 804.15972 151.75239 797.78289 146.6875 791.28125 L 154.09375 787.78125 L 159.5625 779.8125 z M 375.0625 830.8125 L 386.84375 856.21875 L 390.71875 859 L 390.71875 866.03125 L 386.84375 889.46875 L 361.375 907.09375 L 359.4375 926.65625 L 345.75 938.375 L 345.625 938.59375 C 338.22984 935.77389 330.92497 932.74784 323.71875 929.5625 L 320.3125 914.9375 L 326.21875 873.84375 L 341.8125 846.46875 L 375.0625 830.8125 z M 601.96875 840.625 L 638.28125 850.1875 C 646.20894 859.82994 654.73257 870.81581 656.71875 875.78125 C 657.79818 878.47987 658.59035 883.61861 659.15625 889.5625 L 615.65625 873.84375 L 601.96875 840.625 z M 811.375 855.1875 C 803.36958 862.18472 795.13721 868.90781 786.65625 875.34375 L 775.5 865.6875 L 785.8125 862.09375 L 811.375 855.1875 z M 666.875 857.78125 L 668.5 858.1875 L 703.65625 873.84375 L 734.96875 879.71875 L 756.84375 872.15625 L 774.75 884.09375 C 757.71398 896.18274 739.83361 907.12882 721.1875 916.84375 L 686.0625 899.28125 L 677.9375 896.3125 C 677.60563 887.7105 676.28125 879.71875 676.28125 879.71875 L 666.875 857.78125 z M 405.4375 869.53125 L 427.90625 885.5625 L 423.96875 916.84375 L 390.125 952.96875 C 378.43402 949.83806 366.89719 946.29167 355.59375 942.28125 L 371.1875 932.5 L 373.15625 920.78125 L 400.53125 895.375 L 405.4375 869.53125 z M 292.90625 869.90625 L 289.25 912.5625 C 279.94597 907.47754 270.83685 902.10221 261.9375 896.40625 L 261.65625 895.375 L 261.65625 885.1875 L 275.34375 879.71875 L 292.90625 869.90625 z M 507.65625 875.0625 L 515.90625 912.96875 L 519.8125 952.0625 L 537.4375 963.84375 L 537.5625 967.71875 C 528.19827 968.2881 518.75748 968.59375 509.25 968.59375 C 506.34894 968.59375 503.45076 968.5534 500.5625 968.5 L 502.21875 954.03125 L 506.125 930.53125 L 492.4375 911 L 478.75 897.3125 L 475.4375 877.4375 L 500.25 875.78125 L 507.65625 875.0625 z M 527.71875 880.53125 L 557 905.125 L 566.75 934.46875 L 567.3125 935.15625 L 562.84375 961.875 L 560.9375 965.71875 C 558.32208 966.01155 555.69101 966.28256 553.0625 966.53125 L 553.0625 952.0625 L 533.5 924.6875 L 527.71875 880.53125 z M 617.625 905.125 L 654.78125 918.8125 L 660.5625 919.15625 C 660.6358 923.61224 660.65625 926.65625 660.65625 926.65625 L 665.15625 941.46875 C 644.57053 948.89596 623.33215 954.89393 601.5 959.34375 L 594.78125 950.875 L 605.90625 928.625 L 617.625 905.125 z M 459.1875 918.8125 L 476.8125 954.03125 L 476.8125 967.4375 C 457.84088 966.11459 439.20454 963.65107 420.9375 960.09375 L 429.84375 954.03125 L 449.4375 920.78125 L 459.1875 918.8125 z M 675.375 919.96875 L 689.96875 920.78125 L 702.0625 926.21875 C 693.8943 930.00239 685.63824 933.5657 677.21875 936.875 C 676.19402 930.89731 675.38594 924.78312 675.375 919.96875 z "
       transform="translate(-6.2765944,-178.21893)"
       id="path2985" />
  </g>
</svg>
